<?xml version="1.0" encoding="UTF-8"?>
<svg width="174px" height="46px" viewBox="0 0 174 46" version="1.1" xmlns="http://www.w3.org/2000/svg" xmlns:xlink="http://www.w3.org/1999/xlink">
    <!-- Generator: Sketch 54.1 (76490) - https://sketchapp.com -->
    <title>Artboard</title>
    <desc>Created with Sketch.</desc>
    <g id="Artboard" stroke="none" stroke-width="1" fill="none" fill-rule="evenodd">
        <path d="M9.5,14.45 L9.5,15.8 C11.233342,13.3666545 13.5499855,12.15 16.45,12.15 C18.783345,12.15 20.6749928,12.8083267 22.125,14.125 C23.5750073,15.4416732 24.3,17.133323 24.3,19.2 C24.3,20.666674 23.933337,21.8583287 23.2,22.775 C22.466663,23.6916712 21.500006,24.15 20.3,24.15 C19.5333295,24.15 18.883336,23.916669 18.35,23.45 C17.816664,22.983331 17.55,22.41667 17.55,21.75 C17.55,21.216664 17.749998,20.7416687 18.15,20.325 C18.550002,19.9083312 19.016664,19.7 19.55,19.7 C19.6500005,19.7 19.866665,19.7499995 20.2,19.85 C20.400001,19.449998 20.5,19.083335 20.5,18.75 C20.5,17.7833285 20.0750042,16.96667 19.225,16.3 C18.3749958,15.63333 17.316673,15.3 16.05,15.3 C13.449987,15.3 11.716671,16.466655 10.85,18.8 C10.316664,20.2333405 10.05,22.3999855 10.05,25.3 L10.05,28.6 C10.05,30.8333445 10.0666665,32.083332 10.1,32.35 C10.2666675,34.2500095 10.783329,35.2 11.65,35.2 C12.0833355,35.2 12.533331,35.133334 13,35 C13.3666685,34.8999995 13.683332,34.85 13.95,34.85 C15.016672,34.85 15.55,35.383328 15.55,36.45 C15.55,37.6166725 14.8666735,38.2 13.5,38.2 L13.3,38.2 C12.7999975,38.2 12.0416717,38.1416672 11.025,38.025 C10.0083282,37.9083327 9.2500025,37.85 8.75,37.85 C7.41666,37.85 6.3666705,37.883333 5.6,37.95 L2.8,38.2 C1.4333265,38.2 0.75,37.6166725 0.75,36.45 C0.75,35.4166615 1.383327,34.9 2.65,34.9 C2.983335,34.9 3.2333325,34.9166665 3.4,34.95 L4.15,35.1 C4.483335,35.166667 4.716666,35.2 4.85,35.2 C5.6833375,35.2 6.133333,34.433341 6.2,32.9 L6.3,30.35 L6.15,19 C6.0499995,17.0333235 5.5500045,16.05 4.65,16.05 C4.383332,16.05 4.016669,16.0999995 3.55,16.2 C3.083331,16.3000005 2.716668,16.35 2.45,16.35 C1.3499945,16.35 0.8,15.816672 0.8,14.75 C0.8,13.5833275 1.5166595,13 2.95,13 C3.283335,13 3.78333,13.0416662 4.45,13.125 C5.11667,13.2083338 5.616665,13.25 5.95,13.25 C6.216668,13.25 6.649997,13.216667 7.25,13.15 C7.516668,13.083333 7.8333315,13.05 8.2,13.05 C9.066671,13.05 9.5,13.516662 9.5,14.45 Z M49.2,23.3 C49.2,24.566673 49.1166675,25.3416652 48.95,25.625 C48.7833325,25.9083347 48.300004,26.05 47.5,26.05 L31.6,26.05 C31.1666645,26.05 30.883334,26.1083327 30.75,26.225 C30.616666,26.3416673 30.55,26.533332 30.55,26.8 C30.55,29.3000125 31.2999925,31.383325 32.8,33.05 C34.3000075,34.716675 36.1666555,35.55 38.4,35.55 C39.866674,35.55 41.2083272,35.150004 42.425,34.35 C43.6416727,33.549996 44.4333315,32.5333395 44.8,31.3 L45.25,29.85 C45.4833345,29.049996 46.033329,28.65 46.9,28.65 C48.1333395,28.65 48.75,29.283327 48.75,30.55 C48.75,32.7166775 47.650011,34.6416582 45.45,36.325 C43.249989,38.0083417 40.750014,38.85 37.95,38.85 C34.4499825,38.85 31.666677,37.6750117 29.6,35.325 C27.533323,32.9749883 26.5,29.8166865 26.5,25.85 C26.5,21.783313 27.599989,18.483346 29.8,15.95 C32.000011,13.416654 34.866649,12.15 38.4,12.15 C41.533349,12.15 44.1166565,13.1999895 46.15,15.3 C48.1833435,17.4000105 49.2,20.0666505 49.2,23.3 Z M31.05,22 C31.05,22.466669 31.416663,22.7 32.15,22.7 L44.1,22.7 C44.8000035,22.7 45.15,22.466669 45.15,22 C45.15,20.2333245 44.48334,18.7000065 43.15,17.4 C41.81666,16.0999935 40.250009,15.45 38.45,15.45 C36.583324,15.45 34.883341,16.1249933 33.35,17.475 C31.816659,18.8250068 31.05,20.333325 31.05,22 Z M60.45,14.45 L60.45,15.8 C62.183342,13.3666545 64.4999855,12.15 67.4,12.15 C69.733345,12.15 71.6249928,12.8083267 73.075,14.125 C74.5250073,15.4416732 75.25,17.133323 75.25,19.2 C75.25,20.666674 74.883337,21.8583287 74.15,22.775 C73.416663,23.6916712 72.450006,24.15 71.25,24.15 C70.4833295,24.15 69.833336,23.916669 69.3,23.45 C68.766664,22.983331 68.5,22.41667 68.5,21.75 C68.5,21.216664 68.699998,20.7416687 69.1,20.325 C69.500002,19.9083312 69.966664,19.7 70.5,19.7 C70.6000005,19.7 70.816665,19.7499995 71.15,19.85 C71.350001,19.449998 71.45,19.083335 71.45,18.75 C71.45,17.7833285 71.0250043,16.96667 70.175,16.3 C69.3249957,15.63333 68.266673,15.3 67,15.3 C64.399987,15.3 62.666671,16.466655 61.8,18.8 C61.266664,20.2333405 61,22.3999855 61,25.3 L61,28.6 C61,30.8333445 61.0166665,32.083332 61.05,32.35 C61.2166675,34.2500095 61.733329,35.2 62.6,35.2 C63.0333355,35.2 63.483331,35.133334 63.95,35 C64.3166685,34.8999995 64.633332,34.85 64.9,34.85 C65.966672,34.85 66.5,35.383328 66.5,36.45 C66.5,37.6166725 65.8166735,38.2 64.45,38.2 L64.25,38.2 C63.7499975,38.2 62.9916718,38.1416672 61.975,38.025 C60.9583283,37.9083327 60.2000025,37.85 59.7,37.85 C58.36666,37.85 57.3166705,37.883333 56.55,37.95 L53.75,38.2 C52.3833265,38.2 51.7,37.6166725 51.7,36.45 C51.7,35.4166615 52.333327,34.9 53.6,34.9 C53.933335,34.9 54.1833325,34.9166665 54.35,34.95 L55.1,35.1 C55.433335,35.166667 55.666666,35.2 55.8,35.2 C56.6333375,35.2 57.083333,34.433341 57.15,32.9 L57.25,30.35 L57.1,19 C56.9999995,17.0333235 56.5000045,16.05 55.6,16.05 C55.333332,16.05 54.966669,16.0999995 54.5,16.2 C54.033331,16.3000005 53.666668,16.35 53.4,16.35 C52.2999945,16.35 51.75,15.816672 51.75,14.75 C51.75,13.5833275 52.4666595,13 53.9,13 C54.233335,13 54.73333,13.0416662 55.4,13.125 C56.06667,13.2083338 56.566665,13.25 56.9,13.25 C57.166668,13.25 57.599997,13.216667 58.2,13.15 C58.466668,13.083333 58.7833315,13.05 59.15,13.05 C60.016671,13.05 60.45,13.516662 60.45,14.45 Z M100.15,23.3 C100.15,24.566673 100.066668,25.3416652 99.9,25.625 C99.7333325,25.9083347 99.250004,26.05 98.45,26.05 L82.55,26.05 C82.1166645,26.05 81.833334,26.1083327 81.7,26.225 C81.566666,26.3416673 81.5,26.533332 81.5,26.8 C81.5,29.3000125 82.2499925,31.383325 83.75,33.05 C85.2500075,34.716675 87.1166555,35.55 89.35,35.55 C90.816674,35.55 92.1583273,35.150004 93.375,34.35 C94.5916728,33.549996 95.3833315,32.5333395 95.75,31.3 L96.2,29.85 C96.4333345,29.049996 96.983329,28.65 97.85,28.65 C99.0833395,28.65 99.7,29.283327 99.7,30.55 C99.7,32.7166775 98.600011,34.6416582 96.4,36.325 C94.199989,38.0083417 91.700014,38.85 88.9,38.85 C85.3999825,38.85 82.616677,37.6750117 80.55,35.325 C78.483323,32.9749883 77.45,29.8166865 77.45,25.85 C77.45,21.783313 78.549989,18.483346 80.75,15.95 C82.950011,13.416654 85.816649,12.15 89.35,12.15 C92.483349,12.15 95.0666565,13.1999895 97.1,15.3 C99.1333435,17.4000105 100.15,20.0666505 100.15,23.3 Z M82,22 C82,22.466669 82.366663,22.7 83.1,22.7 L95.05,22.7 C95.7500035,22.7 96.1,22.466669 96.1,22 C96.1,20.2333245 95.43334,18.7000065 94.1,17.4 C92.76666,16.0999935 91.200009,15.45 89.4,15.45 C87.533324,15.45 85.833341,16.1249933 84.3,17.475 C82.766659,18.8250068 82,20.333325 82,22 Z M117.6,31.1 L117.7,27.9 C117.733334,26.5333265 118.333327,25.85 119.5,25.85 C120.666673,25.85 121.25,26.616659 121.25,28.15 C121.25,31.7833515 120.783338,34.3166595 119.85,35.75 C118.583327,37.683343 116.500014,38.65 113.6,38.65 C110.93332,38.65 109.033339,37.8000085 107.9,36.1 C107.066663,34.8666605 106.65,32.7666815 106.65,29.8 L106.65,17.8 C106.65,17.0999965 106.333337,16.75 105.7,16.75 L104.1,16.75 C103.566664,16.75 103.125002,16.5750017 102.775,16.225 C102.424998,15.8749983 102.25,15.4500025 102.25,14.95 C102.25,14.483331 102.424998,14.0666685 102.775,13.7 C103.125002,13.3333315 103.516665,13.15 103.95,13.15 L105.9,13.15 C106.466669,13.15 106.75,12.8333365 106.75,12.2 L106.75,7.05 C106.75,5.783327 107.399993,5.15 108.7,5.15 C109.900006,5.15 110.5,5.783327 110.5,7.05 L110.5,12.4 C110.5,12.9000025 110.799997,13.15 111.4,13.15 L116.85,13.15 C118.116673,13.15 118.75,13.7333275 118.75,14.9 C118.75,16.1333395 118.066674,16.75 116.7,16.75 L111.2,16.75 C110.733331,16.75 110.5,17.0999965 110.5,17.8 L110.5,30.1 C110.5,33.6000175 111.649989,35.35 113.95,35.35 C116.283345,35.35 117.5,33.9333475 117.6,31.1 Z M131.4,14.45 L131.4,15.8 C133.133342,13.3666545 135.449985,12.15 138.35,12.15 C140.683345,12.15 142.574993,12.8083267 144.025,14.125 C145.475007,15.4416732 146.2,17.133323 146.2,19.2 C146.2,20.666674 145.833337,21.8583287 145.1,22.775 C144.366663,23.6916712 143.400006,24.15 142.2,24.15 C141.43333,24.15 140.783336,23.916669 140.25,23.45 C139.716664,22.983331 139.45,22.41667 139.45,21.75 C139.45,21.216664 139.649998,20.7416687 140.05,20.325 C140.450002,19.9083312 140.916664,19.7 141.45,19.7 C141.550001,19.7 141.766665,19.7499995 142.1,19.85 C142.300001,19.449998 142.4,19.083335 142.4,18.75 C142.4,17.7833285 141.975004,16.96667 141.125,16.3 C140.274996,15.63333 139.216673,15.3 137.95,15.3 C135.349987,15.3 133.616671,16.466655 132.75,18.8 C132.216664,20.2333405 131.95,22.3999855 131.95,25.3 L131.95,28.6 C131.95,30.8333445 131.966667,32.083332 132,32.35 C132.166668,34.2500095 132.683329,35.2 133.55,35.2 C133.983336,35.2 134.433331,35.133334 134.9,35 C135.266669,34.8999995 135.583332,34.85 135.85,34.85 C136.916672,34.85 137.45,35.383328 137.45,36.45 C137.45,37.6166725 136.766674,38.2 135.4,38.2 L135.2,38.2 C134.699998,38.2 133.941672,38.1416672 132.925,38.025 C131.908328,37.9083327 131.150002,37.85 130.65,37.85 C129.31666,37.85 128.266671,37.883333 127.5,37.95 L124.7,38.2 C123.333326,38.2 122.65,37.6166725 122.65,36.45 C122.65,35.4166615 123.283327,34.9 124.55,34.9 C124.883335,34.9 125.133333,34.9166665 125.3,34.95 L126.05,35.1 C126.383335,35.166667 126.616666,35.2 126.75,35.2 C127.583337,35.2 128.033333,34.433341 128.1,32.9 L128.2,30.35 L128.05,19 C127.95,17.0333235 127.450005,16.05 126.55,16.05 C126.283332,16.05 125.916669,16.0999995 125.45,16.2 C124.983331,16.3000005 124.616668,16.35 124.35,16.35 C123.249995,16.35 122.7,15.816672 122.7,14.75 C122.7,13.5833275 123.41666,13 124.85,13 C125.183335,13 125.68333,13.0416662 126.35,13.125 C127.01667,13.2083338 127.516665,13.25 127.85,13.25 C128.116668,13.25 128.549997,13.216667 129.15,13.15 C129.416668,13.083333 129.733332,13.05 130.1,13.05 C130.966671,13.05 131.4,13.516662 131.4,14.45 Z M159.9,38.85 C156.399983,38.85 153.60001,37.6416787 151.5,35.225 C149.39999,32.8083213 148.35,29.566687 148.35,25.5 C148.35,21.433313 149.408323,18.1916788 151.525,15.775 C153.641677,13.3583212 156.483316,12.15 160.05,12.15 C163.683352,12.15 166.54999,13.3333215 168.65,15.7 C170.750011,18.0666785 171.8,21.283313 171.8,25.35 C171.8,29.416687 170.716678,32.683321 168.55,35.15 C166.383323,37.616679 163.500018,38.85 159.9,38.85 Z M160.15,15.45 C157.816655,15.45 155.98334,16.2666585 154.65,17.9 C153.31666,19.5333415 152.583334,21.849985 152.45,24.85 C152.45,24.85 152.45,25.0666645 152.45,25.5 C152.45,28.633349 153.108327,31.0916577 154.425,32.875 C155.741673,34.6583423 157.583322,35.55 159.95,35.55 C162.383346,35.55 164.29166,34.6583423 165.675,32.875 C167.05834,31.0916577 167.75,28.6166825 167.75,25.45 C167.75,18.7833 165.216692,15.45 160.15,15.45 Z" id="reretro" fill="#FFFFFF" fill-rule="nonzero"></path>
    </g>
</svg>