<?xml version="1.0" encoding="UTF-8"?>
<svg width="174px" height="46px" viewBox="0 0 174 46" version="1.1" xmlns="http://www.w3.org/2000/svg" xmlns:xlink="http://www.w3.org/1999/xlink">
    <!-- Generator: Sketch 54.1 (76490) - https://sketchapp.com -->
    <title>Artboard</title>
    <desc>Created with Sketch.</desc>
    <g id="Artboard" stroke="none" stroke-width="1" fill="none" fill-rule="evenodd">
        <g id="reretro-copy" transform="translate(0.750000, 5.150000)" fill-rule="nonzero">
            <path d="M8.75,9.3 L8.75,10.65 C10.483342,8.2166545 12.7999855,7 15.7,7 C18.033345,7 19.9249927,7.65832675 21.375,8.975 C22.8250072,10.2916733 23.55,11.983323 23.55,14.05 C23.55,15.516674 23.183337,16.7083288 22.45,17.625 C21.716663,18.5416713 20.750006,19 19.55,19 C18.7833295,19 18.133336,18.766669 17.6,18.3 C17.066664,17.833331 16.8,17.26667 16.8,16.6 C16.8,16.066664 16.999998,15.5916688 17.4,15.175 C17.800002,14.7583313 18.266664,14.55 18.8,14.55 C18.9000005,14.55 19.116665,14.5999995 19.45,14.7 C19.650001,14.299998 19.75,13.933335 19.75,13.6 C19.75,12.6333285 19.3250042,11.81667 18.475,11.15 C17.6249957,10.48333 16.566673,10.15 15.3,10.15 C12.699987,10.15 10.966671,11.316655 10.1,13.65 C9.566664,15.0833405 9.3,17.2499855 9.3,20.15 L9.3,23.45 C9.3,25.6833445 9.3166665,26.933332 9.35,27.2 C9.5166675,29.1000095 10.033329,30.05 10.9,30.05 C11.3333355,30.05 11.783331,29.983334 12.25,29.85 C12.6166685,29.7499995 12.933332,29.7 13.2,29.7 C14.266672,29.7 14.8,30.233328 14.8,31.3 C14.8,32.4666725 14.1166735,33.05 12.75,33.05 L12.55,33.05 C12.0499975,33.05 11.2916717,32.9916673 10.275,32.875 C9.25832825,32.7583328 8.5000025,32.7 8,32.7 C6.66666,32.7 5.6166705,32.733333 4.85,32.8 L2.05,33.05 C0.6833265,33.05 -7.10542736e-15,32.4666725 -7.10542736e-15,31.3 C-7.10542736e-15,30.2666615 0.633327,29.75 1.9,29.75 C2.233335,29.75 2.4833325,29.7666665 2.65,29.8 L3.4,29.95 C3.733335,30.016667 3.966666,30.05 4.1,30.05 C4.9333375,30.05 5.383333,29.283341 5.45,27.75 L5.55,25.2 L5.4,13.85 C5.2999995,11.8833235 4.8000045,10.9 3.9,10.9 C3.633332,10.9 3.266669,10.9499995 2.8,11.05 C2.333331,11.1500005 1.966668,11.2 1.7,11.2 C0.5999945,11.2 0.05,10.666672 0.05,9.6 C0.05,8.4333275 0.7666595,7.85 2.2,7.85 C2.533335,7.85 3.03333,7.89166625 3.7,7.975 C4.36667,8.05833375 4.866665,8.1 5.2,8.1 C5.466668,8.1 5.899997,8.066667 6.5,8 C6.766668,7.933333 7.0833315,7.9 7.45,7.9 C8.316671,7.9 8.75,8.366662 8.75,9.3 Z M48.45,18.15 C48.45,19.416673 48.3666675,20.1916653 48.2,20.475 C48.0333325,20.7583348 47.550004,20.9 46.75,20.9 L30.85,20.9 C30.4166645,20.9 30.133334,20.9583328 30,21.075 C29.866666,21.1916673 29.8,21.383332 29.8,21.65 C29.8,24.1500125 30.5499925,26.233325 32.05,27.9 C33.5500075,29.566675 35.4166555,30.4 37.65,30.4 C39.116674,30.4 40.4583272,30.000004 41.675,29.2 C42.8916727,28.399996 43.6833315,27.3833395 44.05,26.15 L44.5,24.7 C44.7333345,23.899996 45.283329,23.5 46.15,23.5 C47.3833395,23.5 48,24.133327 48,25.4 C48,27.5666775 46.900011,29.4916583 44.7,31.175 C42.499989,32.8583418 40.000014,33.7 37.2,33.7 C33.6999825,33.7 30.916677,32.5250118 28.85,30.175 C26.783323,27.8249883 25.75,24.6666865 25.75,20.7 C25.75,16.633313 26.849989,13.333346 29.05,10.8 C31.250011,8.266654 34.116649,7 37.65,7 C40.783349,7 43.3666565,8.0499895 45.4,10.15 C47.4333435,12.2500105 48.45,14.9166505 48.45,18.15 Z M30.3,16.85 C30.3,17.316669 30.666663,17.55 31.4,17.55 L43.35,17.55 C44.0500035,17.55 44.4,17.316669 44.4,16.85 C44.4,15.0833245 43.73334,13.5500065 42.4,12.25 C41.06666,10.9499935 39.500009,10.3 37.7,10.3 C35.833324,10.3 34.133341,10.9749933 32.6,12.325 C31.066659,13.6750068 30.3,15.183325 30.3,16.85 Z" id="re" fill="#0069B4"></path>
            <path d="M59.7,9.3 L59.7,10.65 C61.433342,8.2166545 63.7499855,7 66.65,7 C68.983345,7 70.8749927,7.65832675 72.325,8.975 C73.7750072,10.2916733 74.5,11.983323 74.5,14.05 C74.5,15.516674 74.133337,16.7083288 73.4,17.625 C72.666663,18.5416713 71.700006,19 70.5,19 C69.7333295,19 69.083336,18.766669 68.55,18.3 C68.016664,17.833331 67.75,17.26667 67.75,16.6 C67.75,16.066664 67.949998,15.5916688 68.35,15.175 C68.750002,14.7583313 69.216664,14.55 69.75,14.55 C69.8500005,14.55 70.066665,14.5999995 70.4,14.7 C70.600001,14.299998 70.7,13.933335 70.7,13.6 C70.7,12.6333285 70.2750042,11.81667 69.425,11.15 C68.5749957,10.48333 67.516673,10.15 66.25,10.15 C63.649987,10.15 61.916671,11.316655 61.05,13.65 C60.516664,15.0833405 60.25,17.2499855 60.25,20.15 L60.25,23.45 C60.25,25.6833445 60.2666665,26.933332 60.3,27.2 C60.4666675,29.1000095 60.983329,30.05 61.85,30.05 C62.2833355,30.05 62.733331,29.983334 63.2,29.85 C63.5666685,29.7499995 63.883332,29.7 64.15,29.7 C65.216672,29.7 65.75,30.233328 65.75,31.3 C65.75,32.4666725 65.0666735,33.05 63.7,33.05 L63.5,33.05 C62.9999975,33.05 62.2416717,32.9916673 61.225,32.875 C60.2083282,32.7583328 59.4500025,32.7 58.95,32.7 C57.61666,32.7 56.5666705,32.733333 55.8,32.8 L53,33.05 C51.6333265,33.05 50.95,32.4666725 50.95,31.3 C50.95,30.2666615 51.583327,29.75 52.85,29.75 C53.183335,29.75 53.4333325,29.7666665 53.6,29.8 L54.35,29.95 C54.683335,30.016667 54.916666,30.05 55.05,30.05 C55.8833375,30.05 56.333333,29.283341 56.4,27.75 L56.5,25.2 L56.35,13.85 C56.2499995,11.8833235 55.7500045,10.9 54.85,10.9 C54.583332,10.9 54.216669,10.9499995 53.75,11.05 C53.283331,11.1500005 52.916668,11.2 52.65,11.2 C51.5499945,11.2 51,10.666672 51,9.6 C51,8.4333275 51.7166595,7.85 53.15,7.85 C53.483335,7.85 53.98333,7.89166625 54.65,7.975 C55.31667,8.05833375 55.816665,8.1 56.15,8.1 C56.416668,8.1 56.849997,8.066667 57.45,8 C57.716668,7.933333 58.0333315,7.9 58.4,7.9 C59.266671,7.9 59.7,8.366662 59.7,9.3 Z M99.4,18.15 C99.4,19.416673 99.3166675,20.1916653 99.15,20.475 C98.9833325,20.7583348 98.500004,20.9 97.7,20.9 L81.8,20.9 C81.3666645,20.9 81.083334,20.9583328 80.95,21.075 C80.816666,21.1916673 80.75,21.383332 80.75,21.65 C80.75,24.1500125 81.4999925,26.233325 83,27.9 C84.5000075,29.566675 86.3666555,30.4 88.6,30.4 C90.066674,30.4 91.4083272,30.000004 92.625,29.2 C93.8416727,28.399996 94.6333315,27.3833395 95,26.15 L95.45,24.7 C95.6833345,23.899996 96.233329,23.5 97.1,23.5 C98.3333395,23.5 98.95,24.133327 98.95,25.4 C98.95,27.5666775 97.850011,29.4916583 95.65,31.175 C93.449989,32.8583418 90.950014,33.7 88.15,33.7 C84.6499825,33.7 81.866677,32.5250118 79.8,30.175 C77.733323,27.8249883 76.7,24.6666865 76.7,20.7 C76.7,16.633313 77.799989,13.333346 80,10.8 C82.200011,8.266654 85.066649,7 88.6,7 C91.733349,7 94.3166565,8.0499895 96.35,10.15 C98.3833435,12.2500105 99.4,14.9166505 99.4,18.15 Z M81.25,16.85 C81.25,17.316669 81.616663,17.55 82.35,17.55 L94.3,17.55 C95.0000035,17.55 95.35,17.316669 95.35,16.85 C95.35,15.0833245 94.68334,13.5500065 93.35,12.25 C92.01666,10.9499935 90.450009,10.3 88.65,10.3 C86.783324,10.3 85.083341,10.9749933 83.55,12.325 C82.016659,13.6750068 81.25,15.183325 81.25,16.85 Z M116.85,25.95 L116.95,22.75 C116.983334,21.3833265 117.583327,20.7 118.75,20.7 C119.916673,20.7 120.5,21.466659 120.5,23 C120.5,26.6333515 120.033338,29.1666595 119.1,30.6 C117.833327,32.533343 115.750014,33.5 112.85,33.5 C110.18332,33.5 108.283339,32.6500085 107.15,30.95 C106.316663,29.7166605 105.9,27.6166815 105.9,24.65 L105.9,12.65 C105.9,11.9499965 105.583337,11.6 104.95,11.6 L103.35,11.6 C102.816664,11.6 102.375002,11.4250018 102.025,11.075 C101.674998,10.7249983 101.5,10.3000025 101.5,9.8 C101.5,9.333331 101.674998,8.9166685 102.025,8.55 C102.375002,8.1833315 102.766664,8 103.2,8 L105.15,8 C105.716669,8 106,7.6833365 106,7.05 L106,1.9 C106,0.633327 106.649993,2.13162821e-14 107.95,2.13162821e-14 C109.150006,2.13162821e-14 109.75,0.633327 109.75,1.9 L109.75,7.25 C109.75,7.7500025 110.049997,8 110.65,8 L116.1,8 C117.366673,8 118,8.5833275 118,9.75 C118,10.9833395 117.316674,11.6 115.95,11.6 L110.45,11.6 C109.983331,11.6 109.75,11.9499965 109.75,12.65 L109.75,24.95 C109.75,28.4500175 110.899989,30.2 113.2,30.2 C115.533345,30.2 116.75,28.7833475 116.85,25.95 Z M130.65,9.3 L130.65,10.65 C132.383342,8.2166545 134.699985,7 137.6,7 C139.933345,7 141.824993,7.65832675 143.275,8.975 C144.725007,10.2916733 145.45,11.983323 145.45,14.05 C145.45,15.516674 145.083337,16.7083288 144.35,17.625 C143.616663,18.5416713 142.650006,19 141.45,19 C140.68333,19 140.033336,18.766669 139.5,18.3 C138.966664,17.833331 138.7,17.26667 138.7,16.6 C138.7,16.066664 138.899998,15.5916688 139.3,15.175 C139.700002,14.7583313 140.166664,14.55 140.7,14.55 C140.800001,14.55 141.016665,14.5999995 141.35,14.7 C141.550001,14.299998 141.65,13.933335 141.65,13.6 C141.65,12.6333285 141.225004,11.81667 140.375,11.15 C139.524996,10.48333 138.466673,10.15 137.2,10.15 C134.599987,10.15 132.866671,11.316655 132,13.65 C131.466664,15.0833405 131.2,17.2499855 131.2,20.15 L131.2,23.45 C131.2,25.6833445 131.216667,26.933332 131.25,27.2 C131.416668,29.1000095 131.933329,30.05 132.8,30.05 C133.233336,30.05 133.683331,29.983334 134.15,29.85 C134.516669,29.7499995 134.833332,29.7 135.1,29.7 C136.166672,29.7 136.7,30.233328 136.7,31.3 C136.7,32.4666725 136.016674,33.05 134.65,33.05 L134.45,33.05 C133.949998,33.05 133.191672,32.9916673 132.175,32.875 C131.158328,32.7583328 130.400002,32.7 129.9,32.7 C128.56666,32.7 127.516671,32.733333 126.75,32.8 L123.95,33.05 C122.583326,33.05 121.9,32.4666725 121.9,31.3 C121.9,30.2666615 122.533327,29.75 123.8,29.75 C124.133335,29.75 124.383333,29.7666665 124.55,29.8 L125.3,29.95 C125.633335,30.016667 125.866666,30.05 126,30.05 C126.833337,30.05 127.283333,29.283341 127.35,27.75 L127.45,25.2 L127.3,13.85 C127.2,11.8833235 126.700005,10.9 125.8,10.9 C125.533332,10.9 125.166669,10.9499995 124.7,11.05 C124.233331,11.1500005 123.866668,11.2 123.6,11.2 C122.499995,11.2 121.95,10.666672 121.95,9.6 C121.95,8.4333275 122.66666,7.85 124.1,7.85 C124.433335,7.85 124.93333,7.89166625 125.6,7.975 C126.26667,8.05833375 126.766665,8.1 127.1,8.1 C127.366668,8.1 127.799997,8.066667 128.4,8 C128.666668,7.933333 128.983332,7.9 129.35,7.9 C130.216671,7.9 130.65,8.366662 130.65,9.3 Z M159.15,33.7 C155.649983,33.7 152.85001,32.4916788 150.75,30.075 C148.64999,27.6583213 147.6,24.416687 147.6,20.35 C147.6,16.283313 148.658323,13.0416788 150.775,10.625 C152.891677,8.20832125 155.733316,7 159.3,7 C162.933352,7 165.79999,8.1833215 167.9,10.55 C170.000011,12.9166785 171.05,16.133313 171.05,20.2 C171.05,24.266687 169.966678,27.533321 167.8,30 C165.633323,32.466679 162.750018,33.7 159.15,33.7 Z M159.4,10.3 C157.066655,10.3 155.23334,11.1166585 153.9,12.75 C152.56666,14.3833415 151.833334,16.699985 151.7,19.7 C151.7,19.7 151.7,19.9166645 151.7,20.35 C151.7,23.483349 152.358327,25.9416578 153.675,27.725 C154.991673,29.5083423 156.833322,30.4 159.2,30.4 C161.633346,30.4 163.54166,29.5083423 164.925,27.725 C166.30834,25.9416578 167,23.4666825 167,20.3 C167,13.6333 164.466692,10.3 159.4,10.3 Z" id="retro" fill="#003459"></path>
        </g>
    </g>
</svg>